# xmcd
#
# Track frame offsets:
# 150
# 11148
# 32004
# 50833
# 67402
# 87619
# 92721
# 112956
# 118822
# 140185
# 160200
# 178453
# 196169
# 214894
# 240240
# 260375
# 278945
# 298723
# 318033
#
# Disc length: 4260 seconds
#
#
# Revision: 0
# Processed by: cddbd v1.5.1PL0 Copyright (c) Steve Scherf et al.
# Submitted via: FreeRIP 2.941 
#
DISCID=2a10a213
DTITLE=Capone N Noreaga  - Reunion
DYEAR=1900
DGENRE=Rap
TTITLE0=Intro: Change Is Gonna Come feat.Carl Thomas
TTITLE1=Collect Call skit
TTITLE2=Phonetime
TTITLE3=Queens
TTITLE4=Invincible
TTITLE5=Bang Bang
TTITLE6=Gangsta skit
TTITLE7=F*** Wit Us
TTITLE8=Shows! (interlude)
TTITLE9=Straight Like That feat. Algado and Shoballotti
TTITLE10=All We Got Is Us
TTITLE11=Brothers feat. Goldfingaz and Troy Outlaw
TTITLE12=B Ez
TTITLE13=Gunz In Da Air
TTITLE14=Wet Willie skit
TTITLE15=Full Steezy
TTITLE16=Queens Finest feat. Havoc and Prodigy, Algado and Shoballotti
TTITLE17=You Can't Kill Me
TTITLE18=Don't Know Nobody
EXTD=
EXTT0=
EXTT1=
EXTT2=
EXTT3=
EXTT4=
EXTT5=
EXTT6=
EXTT7=
EXTT8=
EXTT9=
EXTT10=
EXTT11=
EXTT12=
EXTT13=
EXTT14=
EXTT15=
EXTT16=
EXTT17=
EXTT18=
PLAYORDER=
